<svg xmlns="http://www.w3.org/2000/svg" xmlns:xlink="http://www.w3.org/1999/xlink" width="29.27" height="24.366" viewBox="0 0 29.27 24.366">
  <g id="icon" transform="translate(-178.133 667.897)">
    <line id="선_1" data-name="선 1" x2="16.074" transform="translate(184.595 -660.683)" fill="none" stroke="#ceaa8a" stroke-linecap="round" stroke-width="1"/>
    <line id="선_2" data-name="선 2" x2="8.867" transform="translate(184.595 -655.713)" fill="none" stroke="#ceaa8a" stroke-linecap="round" stroke-width="1"/>
    <line id="선_6" data-name="선 6" x2="3.99" transform="translate(196.454 -655.713)" fill="none" stroke="#ceaa8a" stroke-linecap="round" stroke-width="1"/>
    <g id="그룹_23" data-name="그룹 23" transform="translate(178 -668)">
      <path id="패스_2078" data-name="패스 2078" d="M9.537,31.94l-2.571.044h-2.4" transform="translate(-1.674 -12.667)" fill="none" stroke="#a8a8a8" stroke-miterlimit="10" stroke-width="1"/>
      <g id="그룹_22" data-name="그룹 22" transform="translate(0 0)">
        <g id="그룹_21" data-name="그룹 21" clip-path="url(#clip-path)">
          <path id="패스_2079" data-name="패스 2079" d="M3.256,19.712A2.2,2.2,0,0,1,1,17.562V3.15A2.2,2.2,0,0,1,3.256,1H27.014A2.2,2.2,0,0,1,29.27,3.15V17.562a2.2,2.2,0,0,1-2.256,2.15h-5.22" transform="translate(-0.367 -0.397)" fill="none" stroke="#a8a8a8" stroke-linecap="round" stroke-linejoin="round" stroke-miterlimit="10" stroke-width="1"/>
          <path id="패스_2080" data-name="패스 2080" d="M10.256,31.986s3.431-.368,4.773.743c1.19.986,4.422,3.224,5.353,3.865a.161.161,0,0,0,.254-.125V34.912s.421-2.751,4.606-2.927" transform="translate(-3.762 -12.661)" fill="none" stroke="#a8a8a8" stroke-linecap="round" stroke-linejoin="round" stroke-miterlimit="10" stroke-width="1"/>
        </g>
      </g>
    </g>
  </g>
</svg>
