<svg xmlns="http://www.w3.org/2000/svg" width="28.416" height="30.915" viewBox="0 0 28.416 30.915">
  <g id="icon" transform="translate(-491.805 731.247)">
    <path id="패스_2082" data-name="패스 2082" d="M524.014-671.639" transform="translate(-23.701 -44.454)" fill="none" stroke="#ceaa8a" stroke-width="1"/>
    <line id="선_4" data-name="선 4" y2="9.421" transform="translate(492.5 -713.579)" fill="none" stroke="#a8a8a8" stroke-linecap="round" stroke-width="1"/>
    <line id="선_5" data-name="선 5" y2="9.173" transform="translate(519.523 -712.835)" fill="none" stroke="#a8a8a8" stroke-linecap="round" stroke-width="1"/>
    <path id="패스_2083" data-name="패스 2083" d="M492.5-669.269s2.017-3.075,7.66-2.486" transform="translate(0 -44.31)" fill="none" stroke="#a8a8a8" stroke-linecap="round" stroke-width="1"/>
    <path id="패스_2084" data-name="패스 2084" d="M559.338-658.5s3.343,3.74,10.453,0" transform="translate(-50.268 -54.335)" fill="none" stroke="#a8a8a8" stroke-linecap="round" stroke-width="1"/>
    <path id="패스_2085" data-name="패스 2085" d="M492.5-628.738a12.039,12.039,0,0,1,13.837,1.01,9.867,9.867,0,0,0,13.177-.555" transform="translate(0 -75.423)" fill="none" stroke="#a8a8a8" stroke-linecap="round" stroke-width="1"/>
    <g id="타원_1788" data-name="타원 1788" transform="translate(503.092 -725.519)" fill="none" stroke="#ceaa8a" stroke-width="1">
      <circle cx="3.531" cy="3.531" r="3.531" stroke="none"/>
      <circle cx="3.531" cy="3.531" r="3.031" fill="none"/>
    </g>
    <path id="패스_2081" data-name="패스 2081" d="M523.2-709.311s-8.026-7.934-8.169-12.963,3.4-8.7,8.169-8.462,8.491,4.248,8.076,8.462S523.2-709.311,523.2-709.311Z" transform="translate(-16.793 0)" fill="none" stroke="#ceaa8a" stroke-width="1"/>
  </g>
</svg>
