<svg xmlns="http://www.w3.org/2000/svg" width="26.828" height="32.144" viewBox="0 0 26.828 32.144">
  <g id="icon" transform="translate(-37.113 -9.727)">
    <g id="그룹_38" data-name="그룹 38" transform="translate(35.5 2.5)">
      <path id="패스_2102" data-name="패스 2102" d="M37.284,77.223a16.062,16.062,0,0,1,7.161,3.771,9.99,9.99,0,0,0,9.137,1.657" transform="translate(-29.603 -60.723)" fill="none" stroke="#a8a8a8" stroke-linecap="round" stroke-linejoin="round" stroke-width="1"/>
      <line id="선_15" data-name="선 15" x1="2.401" y2="6.646" transform="translate(7.065 24.081)" fill="none" stroke="#a8a8a8" stroke-linecap="round" stroke-miterlimit="10" stroke-width="1"/>
      <line id="선_16" data-name="선 16" x1="2.401" y2="6.646" transform="translate(11.011 25.507)" fill="none" stroke="#a8a8a8" stroke-linecap="round" stroke-miterlimit="10" stroke-width="1"/>
      <line id="선_17" data-name="선 17" x1="2.401" y2="6.646" transform="translate(14.957 26.932)" fill="none" stroke="#a8a8a8" stroke-linecap="round" stroke-miterlimit="10" stroke-width="1"/>
      <path id="패스_2105" data-name="패스 2105" d="M95.905,104.833l1.94.7a1.954,1.954,0,0,1,1.3,2.427l-3.327,9.208a1.953,1.953,0,0,1-2.553,1.033l-1.94-.7-.433-.156" transform="translate(-71.377 -82.236)" fill="none" stroke="#a8a8a8" stroke-linecap="round" stroke-linejoin="round" stroke-width="1"/>
      <path id="패스_2101" data-name="패스 2101" d="M34.714,71.752,28.459,89.067a2.567,2.567,0,0,1-3.287,1.542L13.8,86.5a2.567,2.567,0,0,1-1.542-3.287L18.515,65.9" transform="translate(-9.986 -51.9)" fill="none" stroke="#a8a8a8" stroke-linecap="round" stroke-linejoin="round" stroke-width="1"/>
      <path id="패스_2104" data-name="패스 2104" d="M56.551,49.086A3.274,3.274,0,0,0,55.91,44.5a3.187,3.187,0,0,0-2.45-.567,4.045,4.045,0,0,0-1.63-2.984,4.109,4.109,0,0,0-4.865.032,2.369,2.369,0,0,0-.31-.277,2.317,2.317,0,0,0-1.065-.431,2.336,2.336,0,0,0-.931-1.587,2.4,2.4,0,0,0-3.35.55,2.479,2.479,0,0,0-.344.651,2.434,2.434,0,0,0-2.408,4.179,2.315,2.315,0,0,0,1.213.444l1.5.549L39.69,48.548l.009,0c-.034.059-.066.12-.094.183A2.212,2.212,0,0,0,40.7,51.688a2.265,2.265,0,0,0,2.958-1.168c.029-.063.053-.127.076-.191l.009,0,1.7-3.747.51.187,4.328,1.585.712.261,4.22,1.546.01,0,.005-.01A3.352,3.352,0,0,0,56.551,49.086Z" transform="translate(-29.853 -30.343)" fill="#313131" stroke="#ceaa8a" stroke-linecap="round" stroke-linejoin="round" stroke-width="1"/>
    </g>
  </g>
</svg>
