<svg xmlns="http://www.w3.org/2000/svg" xmlns:xlink="http://www.w3.org/1999/xlink" width="24.501" height="24.984" viewBox="0 0 24.501 24.984">
  <g id="icon" transform="translate(0.05 0.168)">
    <g id="그룹_29" data-name="그룹 29" clip-path="url(#clip-path)">
      <path id="패스_2087" data-name="패스 2087" d="M22.032,160.4s-5.454.32-7.243,4.282a7.993,7.993,0,0,0,.723,7.475s5.358,1.211,8.185-1.318S25.379,163,25.379,163" transform="translate(-13.073 -148.234)" fill="none" stroke="#fff" stroke-linecap="round" stroke-miterlimit="10" stroke-width="1"/>
      <path id="패스_2088" data-name="패스 2088" d="M17.821,15.27s-1.438-4-4.548-4.757a13.528,13.528,0,0,0-6.22.152s-2.731,4.779.607,8.723" transform="translate(-5.546 -9.436)" fill="none" stroke="#fff" stroke-linecap="round" stroke-miterlimit="10" stroke-width="1"/>
      <path id="패스_2089" data-name="패스 2089" d="M164.869,194.287s.986,4.627,4.475,5.234a17.207,17.207,0,0,0,5.765.152,9.85,9.85,0,0,0-.379-9.481" transform="translate(-152.363 -175.765)" fill="none" stroke="#fff" stroke-linecap="round" stroke-miterlimit="10" stroke-width="1"/>
      <line id="선_7" data-name="선 7" x2="2.838" y2="2.922" transform="translate(5.451 5.627)" fill="none" stroke="#fff" stroke-linecap="round" stroke-miterlimit="10" stroke-width="1"/>
      <line id="선_8" data-name="선 8" x2="2.838" y2="2.922" transform="translate(16.222 16.095)" fill="none" stroke="#fff" stroke-linecap="round" stroke-miterlimit="10" stroke-width="1"/>
      <line id="선_9" data-name="선 9" x1="2.838" y2="2.922" transform="translate(15.767 5.552)" fill="none" stroke="#fff" stroke-linecap="round" stroke-miterlimit="10" stroke-width="1"/>
      <line id="선_10" data-name="선 10" x1="2.838" y2="2.922" transform="translate(5.603 16.247)" fill="none" stroke="#fff" stroke-linecap="round" stroke-miterlimit="10" stroke-width="1"/>
      <path id="패스_2086" data-name="패스 2086" d="M157.859,14.51s-.152-5.461,3.641-7.585A7.993,7.993,0,0,1,169.009,7s1.669,5.234-.607,8.268-7.661,2.351-7.661,2.351" transform="translate(-145.884 -5.545)" fill="none" stroke="#fff" stroke-linecap="round" stroke-miterlimit="10" stroke-width="1"/>
      <circle id="타원_1789" data-name="타원 1789" cx="2.731" cy="2.731" r="2.731" transform="translate(9.396 9.344)" fill="none" stroke="#fff" stroke-linecap="round" stroke-miterlimit="10" stroke-width="1"/>
    </g>
  </g>
</svg>
