<svg xmlns="http://www.w3.org/2000/svg" width="41.015" height="31.875" viewBox="0 0 41.015 31.875">
  <g id="icon" transform="translate(0.512 0.5)">
    <g id="그룹_32" data-name="그룹 32" transform="translate(0 0)">
      <path id="패스_2095" data-name="패스 2095" d="M60.592,11.693l5.2-8.993-5.6-.2A6.982,6.982,0,0,0,55.7,5C54.1,7.2,50,11.893,50,11.893" transform="translate(-35.277 -2.5)" fill="none" stroke="#ceaa8a" stroke-linecap="round" stroke-linejoin="round" stroke-width="1"/>
      <path id="패스_2096" data-name="패스 2096" d="M29.513,38.387h4.8s3.2-.4,4.6-2.4,3.6-5.8,3.6-5.8V22H41.1a2.356,2.356,0,0,0-2,1.2,23.313,23.313,0,0,1-1.8,2.8,4.635,4.635,0,0,1-3.6,1.6H14.125s-4.6-.6-7.194,1.6-6.595,5.4-3,8.193c0,0,1.2.8,4.2.8h8.793" transform="translate(-2.5 -18.103)" fill="none" stroke="#a8a8a8" stroke-linecap="round" stroke-linejoin="round" stroke-width="1"/>
      <path id="패스_2097" data-name="패스 2097" d="M61.49,84.4l5.8,14.189h-4.8a7.081,7.081,0,0,1-5.2-2.6C55.295,93.393,48.5,84,48.5,84" transform="translate(-36.475 -67.713)" fill="none" stroke="#a8a8a8" stroke-linecap="round" stroke-linejoin="round" stroke-width="1"/>
      <line id="선_11" data-name="선 11" x1="5.679" transform="translate(1.549 14.289)" fill="none" stroke="#a8a8a8" stroke-linecap="round" stroke-linejoin="round" stroke-width="1"/>
    </g>
  </g>
</svg>
