<svg xmlns="http://www.w3.org/2000/svg" width="28.157" height="26.023" viewBox="0 0 28.157 26.023">
  <g id="그룹_43" data-name="그룹 43" transform="translate(0.085 31.583)">
    <g id="그룹_44" data-name="그룹 44" transform="translate(0.52 -30.971)">
      <path id="패스_2111" data-name="패스 2111" d="M3.584,20.782s-1.563-4.263.426-6.111a19.178,19.178,0,0,1,3.268-2.558,3.017,3.017,0,0,1,3.837.711c1.705,1.99,2.558,3.126,2.558,3.126s1.421,2.274-.142,3.695-1.279,1.137-1.279,1.137a11.579,11.579,0,0,0,6.395,6.253L19.784,25.9a2.414,2.414,0,0,1,2.842-.568,39.883,39.883,0,0,1,4.547,3.411s1.492,1.066.924,2.487c-.425,1.064-1.918,3.908-4.192,5.045-1.605.8-4.2-.024-5.591-.579a7.384,7.384,0,0,1-1.637-.915C14.249,32.987,6.112,26.68,3.584,20.782Z" transform="translate(-3 -11.708)" fill="none" stroke="#a8a8a8" stroke-miterlimit="10" stroke-width="1"/>
      <path id="패스_2112" data-name="패스 2112" d="M133.364,8.594h3.66a1.214,1.214,0,0,0,1.215-1.214V4.214A1.214,1.214,0,0,0,137.024,3h-6.7a1.214,1.214,0,0,0-1.214,1.214V7.38a1.286,1.286,0,0,0,1.35,1.15l-.064,1.865,2.25-1.736Z" transform="translate(-111.187 -1.289)" fill="none" stroke="#ceaa8a" stroke-linecap="round" stroke-linejoin="round" stroke-width="1"/>
    </g>
  </g>
</svg>
