<svg xmlns="http://www.w3.org/2000/svg" width="31.566" height="25.754" viewBox="0 0 31.566 25.754">
  <g id="그룹_43" data-name="그룹 43" transform="translate(-88.873 -34.322)">
    <g id="그룹_44" data-name="그룹 44" transform="translate(89.373 34.822)">
      <path id="패스_2112" data-name="패스 2112" d="M143.354,21.727h12.254a4.066,4.066,0,0,0,4.066-4.066V7.066A4.066,4.066,0,0,0,155.608,3H133.174a4.065,4.065,0,0,0-4.066,4.066v10.6c0,2.245,2.275,3.85,4.52,3.85l-.215,6.242,7.534-5.812Z" transform="translate(-129.108 -3)" fill="none" stroke="#a8a8a8" stroke-linecap="round" stroke-linejoin="round" stroke-width="1"/>
      <path id="패스_2113" data-name="패스 2113" d="M149.477,30.882a1.928,1.928,0,1,1,0-2.727A1.928,1.928,0,0,1,149.477,30.882Z" transform="translate(-139.804 -19.684)" fill="#ceaa8a"/>
      <path id="패스_2114" data-name="패스 2114" d="M149.477,30.882a1.928,1.928,0,1,1,0-2.727A1.928,1.928,0,0,1,149.477,30.882Z" transform="translate(-132.531 -19.684)" fill="#ceaa8a"/>
      <path id="패스_2115" data-name="패스 2115" d="M149.477,30.882a1.928,1.928,0,1,1,0-2.727A1.928,1.928,0,0,1,149.477,30.882Z" transform="translate(-125.257 -19.684)" fill="#ceaa8a"/>
    </g>
  </g>
</svg>
