<svg xmlns="http://www.w3.org/2000/svg" width="30.79" height="30.534" viewBox="0 0 30.79 30.534">
  <g id="그룹_40" data-name="그룹 40" transform="translate(-0.036 -0.03)">
    <g id="그룹_41" data-name="그룹 41" transform="translate(0.536 0.536)">
      <path id="패스_2106" data-name="패스 2106" d="M43.533,3.7a1.753,1.753,0,0,1,2.03-1.184A24.47,24.47,0,0,1,59.77,9.788a21.771,21.771,0,0,1,6.494,13.4A2.11,2.11,0,0,1,64.889,25.5l-.045.015c-1.522.507-2.368-1.015-2.537-1.86S61.715,16.3,56.472,11.9,49.03,7.166,45.309,6.321A2.047,2.047,0,0,1,43.533,3.7Z" transform="translate(-36.514 -2.5)" fill="none" stroke="#a8a8a8" stroke-miterlimit="10" stroke-width="1"/>
      <circle id="타원_1790" data-name="타원 1790" cx="2.763" cy="2.763" r="2.763" transform="translate(13.137 11.995)" fill="none" stroke="#ceaa8a" stroke-linecap="round" stroke-linejoin="round" stroke-width="1"/>
      <circle id="타원_1791" data-name="타원 1791" cx="2.03" cy="2.03" r="2.03" transform="translate(3.552 21.579)" fill="none" stroke="#ceaa8a" stroke-linecap="round" stroke-linejoin="round" stroke-width="1"/>
      <path id="패스_2107" data-name="패스 2107" d="M34.146,56.36a3.044,3.044,0,0,0-1.837-2.794l-1.7,5.8a3.077,3.077,0,0,0,.488.043A3.044,3.044,0,0,0,34.146,56.36Z" transform="translate(-25.858 -44.929)" fill="none" stroke="#ceaa8a" stroke-linecap="round" stroke-linejoin="round" stroke-width="1"/>
      <path id="패스_2108" data-name="패스 2108" d="M98.052,122.087a3.546,3.546,0,0,0-3.366,4.68l6.8-2.039A3.55,3.55,0,0,0,98.052,122.087Z" transform="translate(-78.94 -101.861)" fill="none" stroke="#ceaa8a" stroke-linecap="round" stroke-linejoin="round" stroke-width="1"/>
      <path id="패스_2110" data-name="패스 2110" d="M0,0A2.46,2.46,0,0,1,2.706,2.708" transform="matrix(0.616, -0.788, 0.788, 0.616, 11.294, 10.087)" fill="none" stroke="#a8a8a8" stroke-linecap="round" stroke-linejoin="round" stroke-width="1"/>
      <line id="선_21" data-name="선 21" x1="1.691" y2="2.199" transform="translate(9.189 17.35)" fill="none" stroke="#a8a8a8" stroke-linecap="round" stroke-linejoin="round" stroke-width="1"/>
      <path id="패스_2109" data-name="패스 2109" d="M10.117,22.506,2.5,48.65l25.953-7.528" transform="translate(-2.5 -19.122)" fill="none" stroke="#a8a8a8" stroke-linecap="round" stroke-linejoin="round" stroke-width="1"/>
    </g>
  </g>
</svg>
