<svg xmlns="http://www.w3.org/2000/svg" width="39.453" height="26.206" viewBox="0 0 39.453 26.206">
  <g id="그룹_55" data-name="그룹 55" transform="translate(0.051 -1.845)">
    <g id="그룹_56" data-name="그룹 56">
      <path id="패스_2123" data-name="패스 2123" d="M34.54,5.557A9.226,9.226,0,1,1,45.969,18.775" transform="translate(-15.577 1.345)" fill="none" stroke="#ceaa8a" stroke-linecap="round" stroke-miterlimit="10" stroke-width="1"/>
      <path id="패스_2128" data-name="패스 2128" d="M5230.457-504.962a12.875,12.875,0,0,0-2.6,3.211" transform="translate(-5209 524)" fill="none" stroke="#ceaa8a" stroke-width="1"/>
      <path id="패스_2127" data-name="패스 2127" d="M66.312,41.816S65.021,36.208,61,35.5" transform="translate(-27.51 -17.012)" fill="none" stroke="#ceaa8a" stroke-linecap="round" stroke-miterlimit="10" stroke-width="1"/>
      <path id="패스_2124" data-name="패스 2124" d="M40.791,34.535a10.172,10.172,0,0,1-4.275-2.922" transform="translate(-16.468 -14.257)" fill="none" stroke="#ceaa8a" stroke-linecap="round" stroke-miterlimit="10" stroke-width="1"/>
      <path id="패스_2125" data-name="패스 2125" d="M1,44.816S2.291,39.208,6.312,38.5" transform="translate(-0.451 -17.365)" fill="none" stroke="#a8a8a8" stroke-linecap="round" stroke-miterlimit="10" stroke-width="1"/>
      <path id="패스_2126" data-name="패스 2126" d="M35.312,44.816S34.021,39.208,30,38.5" transform="translate(-13.529 -17.365)" fill="none" stroke="#a8a8a8" stroke-linecap="round" stroke-miterlimit="10" stroke-width="1"/>
      <path id="패스_2122" data-name="패스 2122" d="M7.995,21.51a9.014,9.014,0,1,1,6.411-.141" transform="translate(0.098 0.415)" fill="none" stroke="#a8a8a8" stroke-linecap="round" stroke-miterlimit="10" stroke-width="1"/>
    </g>
  </g>
</svg>
