<svg id="그룹_6" data-name="그룹 6" xmlns="http://www.w3.org/2000/svg" width="48" height="12" viewBox="0 0 48 12">
  <path id="패스_2065" data-name="패스 2065" d="M434.838,251.923v-.131l-1.158-1.033v-1.7h1.838l.606-2.479-.165-.072-.875.777H433.7v-6.71h-4.234l-5.8,8.484h5.623l.655-.957h.158v2.656l-1.158,1.033v.131Zm-4.741-4.636h-3.5l3.455-5.046h.04Z" transform="translate(-399.45 -240.187)" fill="#ceaa8a"/>
  <path id="패스_2066" data-name="패스 2066" d="M303.635,251.925v-.131l-1.158-1.033v-9.343l.839-.748v-.095h-5.262v.095l.839.748v4.962c0,1.351-.422,3.508-2.274,3.508a1.665,1.665,0,0,1-1.323-.625,3.487,3.487,0,0,1-.448-2.218v-5.627l.839-.748v-.095h-5.242v.095l.839.748v6.474a3.99,3.99,0,0,0,.957,3.145,4.351,4.351,0,0,0,5.284.468,3.164,3.164,0,0,0,1.178-2.029h.191v2.448Z" transform="translate(-279.389 -240.187)" fill="#ceaa8a"/>
  <path id="패스_2067" data-name="패스 2067" d="M560.946,245.353l-1.217,1.083-5.272-.009v-.09l.806-.719c1.289-1.179,1.816-1.739,2.547-2.49a4.785,4.785,0,0,0,1.637-3.266c.089-2.216-1.494-3.206-3.469-3.206a11.566,11.566,0,0,0-4.567,1.272l-.785,3.109c1.178-1.079,2.426-2.085,3.606-2.085.559,0,1.345.1,1.345,1.128,0,.924-.778,1.984-1.919,3.468l-1.115,1.421-2.789,3.422h10.4l.936-2.924Z" transform="translate(-513.086 -236.656)" fill="#ceaa8a"/>
  <path id="패스_2068" data-name="패스 2068" d="M178.81,240.576v.095l.839.748v9.341l-1.158,1.033v.13h10l.924-2.882-.14-.115-1.2,1.062h-5.532v-.1l.873-.778v-7.693l.839-.748v-.095Z" transform="translate(-178.49 -240.188)" fill="#ceaa8a"/>
</svg>
