<?xml version="1.0" encoding="utf-8"?>
<!-- Generator: Adobe Illustrator 26.0.1, SVG Export Plug-In . SVG Version: 6.00 Build 0)  -->
<svg version="1.1" id="Layer_1" xmlns="http://www.w3.org/2000/svg" xmlns:xlink="http://www.w3.org/1999/xlink" x="0px" y="0px"
	 viewBox="0 0 1080 1080" style="enable-background:new 0 0 1080 1080;" xml:space="preserve">
<style type="text/css">
	.st0{fill:#FFFFFF;}
</style>
<g>
	<polygon class="st0" points="773.86,586.74 679.61,586.74 679.61,397.59 586.16,397.59 586.16,679.07 773.86,679.07 	"/>
	<polygon class="st0" points="1079.97,494.69 982.45,494.69 982.45,401.27 895.94,401.27 895.94,494.69 798.42,494.69 
		798.42,580.09 895.94,580.09 895.94,681 982.45,681 982.45,580.09 1079.97,580.09 	"/>
	<path class="st0" d="M420.6,395.27c-85.37-4.33-155.5,65.8-151.18,151.18c3.71,73.1,63.1,132.49,136.2,136.2
		c85.37,4.32,155.5-65.8,151.17-151.17C553.1,458.37,493.7,398.98,420.6,395.27z M420.19,592.9c-35.58,4.49-65.5-25.43-61.01-61.01
		c3.06-24.24,22.63-43.82,46.87-46.87c35.58-4.48,65.49,25.44,61.01,61.01C464,570.27,444.43,589.84,420.19,592.9z"/>
	<path class="st0" d="M211.72,520.68c-9.26-6.15-19.64-11.15-30.84-14.92c-1.3-0.43-2.58-0.86-3.85-1.27
		c-3.53-1.15-7.03-2.27-10.48-3.36c-1.91-0.6-3.75-1.17-5.5-1.71c-1.66-0.51-3.29-1-4.93-1.5c-6.64-2-11.42-3.35-12.98-3.77
		c-6.74-1.8-21.35-6.07-26.07-9.44c-3.15-2.25-5.83-10.76,3.15-15.51c8.98-4.74,23.67-6.07,42.1-1.57
		c12.3,3,25.23,11.58,32.49,16.98l57.39-54.59l-3.9-3.16c-10.11-9.08-48.38-39.23-111-39.23c-62.95,0-103.58,30.82-114.11,69.76
		c-2.21,7.55-3.36,15.72-3.36,24.47c0,13.45,2.59,25.22,7.69,34.95c4.94,9.47,11.58,17.64,19.74,24.29
		c7.77,6.35,16.73,11.62,26.61,15.67c7.71,3.15,15.68,5.89,23.73,8.34c16.73,4.8,38.23,10.59,45.1,14.67
		c8.32,4.94,11.46,8.09,9.21,14.83c-0.6,1.79-1.62,3.29-2.93,4.58c-0.08,0.08-0.18,0.15-0.27,0.23c-3.63,3.4-9.36,5.11-15.01,5.76
		c-6.71,0.77-35.59,4.33-71.77-29.5l-62.32,56.16c0,0,51.39,60.53,128.09,56.94c52.31-2.45,90.67-28.32,108.08-59.63
		c0.23-0.38,0.47-0.75,0.69-1.14c7.12-12.48,10.73-27.26,10.73-43.94c0-15.1-3.56-28.09-10.6-38.62
		C230.05,535.62,221.68,527.29,211.72,520.68z"/>
</g>
</svg>
