<?xml version="1.0" encoding="UTF-8"?>
<svg id="Capa_1" data-name="Capa 1" xmlns="http://www.w3.org/2000/svg" version="1.1" viewBox="0 0 800 800">
  <defs>
    <style>
      .cls-1 {
        fill: #017cfe;
        stroke-width: 0px;
      }
    </style>
  </defs>
  <path class="cls-1" d="M35.8,502.5c13.4,9.2,29.2,14.1,45.6,14.1h72.7v196.8c0,44.5,36.2,80.7,80.7,80.7h330.5c44.5,0,80.7-36.2,80.7-80.7v-196.8h72.7c16.4,0,32.2-4.9,45.6-14.1,12.4-8.5,22.1-20.3,28.2-34,6.1-13.8,8.2-28.9,6.1-43.8-2.2-16.1-9.3-31-20.3-43.2L459.6,32.3c-15.2-16.7-37-26.3-59.6-26.3s-44.4,9.6-59.6,26.3L21.8,381.6c-11.1,12.1-18.1,27.1-20.3,43.2-2.1,14.8,0,30,6.1,43.8,6.1,13.8,15.8,25.6,28.2,34ZM65.7,421.6L384.3,72.3c4.2-4.6,9.9-6.9,15.7-6.9s11.5,2.3,15.7,6.9l318.6,349.3c12.4,13.6,2.8,35.5-15.7,35.5h-110.9c-11.7,0-21.2,9.5-21.2,21.2v235c0,11.7-9.5,21.2-21.2,21.2H234.8c-11.7,0-21.2-9.5-21.2-21.2v-235c0-11.7-9.5-21.2-21.2-21.2h-110.9c-18.4,0-28.1-21.9-15.7-35.5Z"/>
  <path class="cls-1" d="M565.2,794.7H234.8c-44.9,0-81.4-36.5-81.4-81.4v-196.1h-72c-16.6,0-32.5-4.9-46-14.2-12.5-8.5-22.3-20.4-28.5-34.3-6.1-13.9-8.3-29.2-6.2-44.2,2.3-16.2,9.4-31.3,20.5-43.5L339.9,31.8c15.4-16.9,37.3-26.5,60.1-26.5s44.7,9.7,60.1,26.5l318.6,349.3c11.2,12.2,18.3,27.3,20.5,43.5,2.1,15,0,30.2-6.2,44.2-6.1,13.9-16,25.8-28.5,34.3-13.5,9.3-29.4,14.2-46,14.2h-72v196.1c0,44.9-36.5,81.4-81.4,81.4ZM400,6.7c-22.4,0-44,9.5-59.1,26.1L22.3,382c-11,12-17.9,26.8-20.2,42.8-2.1,14.7,0,29.7,6.1,43.4,6,13.7,15.7,25.4,28,33.8,13.3,9.1,28.9,13.9,45.2,13.9h73.4v197.4c0,44.1,35.9,80,80,80h330.5c44.1,0,80-35.9,80-80v-197.4h73.4c16.3,0,31.9-4.8,45.2-13.9,12.3-8.4,21.9-20.1,28-33.8,6-13.7,8.1-28.7,6.1-43.4-2.2-16-9.2-30.8-20.2-42.8L459.1,32.8c-15.1-16.6-36.7-26.1-59.1-26.1ZM565.2,735.3H234.8c-12.1,0-21.9-9.8-21.9-21.9v-235c0-11.3-9.2-20.5-20.5-20.5h-110.9c-8.8,0-16.5-5-20.1-13.1-3.6-8.1-2.1-17.1,3.9-23.6L383.8,71.9c4.1-4.5,10-7.1,16.2-7.1s12.1,2.6,16.2,7.1l318.6,349.3c5.9,6.5,7.4,15.6,3.9,23.6s-11.2,13.1-20.1,13.1h-110.9c-11.3,0-20.5,9.2-20.5,20.5v235c0,12.1-9.8,21.9-21.9,21.9ZM400,66.1c-5.8,0-11.3,2.4-15.2,6.7L66.2,422.1c-5.6,6.1-6.9,14.6-3.6,22.1,3.3,7.6,10.5,12.2,18.8,12.2h110.9c12.1,0,21.9,9.8,21.9,21.9v235c0,11.3,9.2,20.5,20.5,20.5h330.5c11.3,0,20.5-9.2,20.5-20.5v-235c0-12.1,9.8-21.9,21.9-21.9h110.9c8.3,0,15.5-4.7,18.8-12.2,3.3-7.6,1.9-16-3.6-22.1L415.2,72.8c-3.9-4.3-9.4-6.7-15.2-6.7Z"/>
</svg>